<svg xmlns="http://www.w3.org/2000/svg" viewBox="0 0 24 24" fill="#339933" role="img" aria-hidden="true"><title>Node.js</title><path d="M11.998 24c-.321 0-.641-.084-.922-.247l-2.936-1.737c-.438-.245-.224-.332-.08-.383.585-.203.703-.25 1.328-.604.065-.037.151-.023.218.017l2.256 1.339a.29.29 0 0 0 .272 0l8.795-5.076a.277.277 0 0 0 .135-.238V6.921a.283.283 0 0 0-.138-.242l-8.791-5.072a.278.278 0 0 0-.271 0L3.075 6.68a.284.284 0 0 0-.14.241v10.15c0 .102.054.197.14.242l2.409 1.392c1.307.654 2.108-.116 2.108-.89V7.787c0-.142.114-.253.256-.253h1.115c.139 0 .255.111.255.253v10.021c0 1.745-.95 2.745-2.604 2.745-.499 0-.889 0-1.988-.551L2.28 18.675a2.067 2.067 0 0 1-1.02-1.788V6.921c0-.738.398-1.419 1.039-1.781l8.795-5.082a2.086 2.086 0 0 1 2.03 0l8.794 5.082c.642.362 1.039 1.043 1.039 1.781v10.15c0 .738-.397 1.419-1.039 1.789l-8.794 5.078a2.03 2.03 0 0 1-1.107.312zm.005-6.247c-.142 0-.256-.114-.256-.253V9.764c0-.14.114-.254.256-.254h1.109c.141 0 .255.114.255.254v7.492c0 .14-.114.253-.255.253h-1.109zm4.344 0c-.139 0-.253-.114-.253-.253V9.764c0-.14.114-.254.256-.254h1.106c.142 0 .257.114.257.254v7.492c0 .14-.115.253-.257.253h-1.106zm4.382-3.725c-.219 0-.438-.052-.646-.155l-4.075-1.888c-.437-.203-.727-.641-.727-1.128v-3.532c0-.141.115-.255.256-.255h1.107c.14 0 .255.114.255.255v3.279l3.303 1.531a.905.905 0 0 0 .392.089c.336 0 .651-.207.776-.552.127-.354.026-.752-.254-1.002-.089-.079-.2-.12-.313-.12-.077 0-.154.02-.22.058l-2.589-1.2a.272.272 0 0 1-.135-.238V8.89c0-.14.114-.254.255-.254h1.108c.14 0 .255.114.255.254v2.127c.574.276 1.038.69 1.357 1.208.445.724.56 1.58.314 2.378-.246.8-.828 1.431-1.596 1.657-.306.09-.625.136-.944.136z"/></svg>
